<svg width="260" height="57" viewBox="0 0 260 57" fill="none" xmlns="http://www.w3.org/2000/svg">
<path d="M23.1779 31.2891V37.2169H18.5732C18.1499 37.2169 13.6243 42.9583 12.429 43.1867L13.3173 45.2419C13.2801 45.4749 10.3638 48.4901 10.1592 48.5926C8.91729 49.1845 6.77774 45.6846 5.72656 44.9576L9.41497 41.1921L10.6847 42.1381C10.8661 42.2127 10.9731 42.0915 11.1173 42.0123C11.4801 41.8212 16.6476 36.448 16.8522 36.0845C17.536 34.8448 16.9778 32.7291 17.1546 31.2891H23.1872H23.1779Z" fill="#00D3F3"/>
<path d="M17.4709 23.7164C17.3127 22.3416 17.8337 20.4495 17.1685 19.2519C16.9546 18.8697 11.4987 13.1935 11.1173 12.9931C10.9731 12.9186 10.8661 12.7974 10.6847 12.8673L9.41497 13.8133L5.72656 10.0478L9.68939 5.9375L13.3173 9.76357L12.4057 11.0778C12.308 11.6556 17.4197 16.5349 18.3081 17.2526C18.4709 17.3831 18.3918 17.7839 18.4197 17.7839H23.1825V23.7117H17.4709V23.7164Z" fill="#00D3F3"/>
<path d="M36.1961 23.7164H30.4844V17.7885C31.8704 17.6068 33.9123 18.1893 35.103 17.4763C35.4519 17.2666 40.6473 11.9026 40.8147 11.5205C41.2287 10.5651 40.331 10.3461 40.317 9.71231C40.2938 8.71035 43.3868 6.92547 43.9729 5.9375C44.8194 7.09324 46.5869 8.26297 47.3264 9.38143C47.5543 9.72629 47.7217 9.73561 47.4845 10.211C47.3776 10.43 44.6473 13.585 44.4473 13.6922C43.5682 14.1535 43.4473 12.4292 42.2333 13.0025C41.8659 13.1749 36.6984 18.5575 36.4937 18.9256C35.81 20.1653 36.3682 22.281 36.1914 23.721L36.1961 23.7164Z" fill="#00D3F3"/>
<path d="M36.1961 31.2891C36.3542 32.6638 35.8333 34.5559 36.4984 35.7536C37.4891 37.5478 41.4147 40.2181 42.7078 42.1521L43.7217 41.2014C44.3171 41.0383 47.2148 43.9184 47.4892 44.4636C47.7264 44.939 47.559 44.9483 47.331 45.2931C47.0241 45.7592 44.0194 48.7744 43.7031 48.7184L40.3589 45.2186C40.131 44.3191 41.2705 43.8391 41.2705 43.6387C41.2705 43.3032 37.2333 39.356 36.6658 38.8713C36.3123 38.5684 34.917 37.3474 34.7077 37.2822C33.5774 36.928 31.7262 37.394 30.4844 37.2169V31.2891H36.1961Z" fill="#00D3F3"/>
<path d="M53.6406 24.7031V30.3001H47.9242V28.655H33.0078V26.3482H47.9242V24.7031H53.6406Z" fill="#00D3F3"/>
<path d="M5.3954 24.7031V26.3482H20.6328V28.655H5.3954V30.3001H0V24.7031H5.3954Z" fill="#00D3F3"/>
<path d="M25.7169 33.9219H27.6239V49.0724H29.5309V54.5062L29.0565 55.0002H24.2937C23.3216 53.6394 23.9727 51.2953 23.8611 49.613C24.103 48.8533 25.103 49.0817 25.7216 49.0724V33.9219H25.7169Z" fill="#00D3F3"/>
<path d="M29.5242 0V5.59697L27.6218 6.09096V21.0783H25.7148V6.09096L23.8125 5.59697V0H29.5242Z" fill="#00D3F3"/>
<path d="M49.5177 17.128V21.0846C48.3596 20.9494 46.9503 21.257 45.8433 21.1079C45.2805 21.0333 45.1456 19.6539 43.3084 20.7351C41.5223 21.7883 41.0618 24.7662 37.7734 23.713C39.9967 21.6019 41.9595 17.6173 45.3735 18.0834L45.5642 17.1094L49.5177 17.128Z" fill="white"/>
<path d="M7.92355 17.1662L7.96076 18.0796C10.5794 17.4924 13.598 20.708 15.0864 22.7259C15.3329 23.0568 15.7004 23.1453 15.5608 23.7139C14.7422 23.6579 13.8166 23.9142 13.0306 23.5461C12.2027 23.1593 10.8305 20.7732 9.94682 20.4936C8.06308 19.8971 8.03052 21.0342 7.49098 21.1088C6.47702 21.2439 5.19329 20.9596 4.13281 21.0855V17.1289L7.92355 17.1662Z" fill="white"/>
<path d="M36.7793 46.4847C36.9375 46.6618 36.9514 49.9426 36.5282 50.2502L32.8351 50.0871C32.6165 49.7609 32.5979 47.4214 32.6909 46.9274C32.8816 45.8975 34.6305 46.3728 33.0165 43.9728C31.8258 42.2019 29.7467 41.8477 30.4816 38.8698C30.6909 38.5762 35.0258 42.8777 35.2584 43.2971C35.8119 44.3037 35.37 45.1425 35.7003 46.1398L36.784 46.4847H36.7793Z" fill="white"/>
<path d="M45.3078 34.4792C45.4054 34.4326 45.2799 33.9759 45.8473 33.9013C46.9589 33.7569 48.359 34.0598 49.5218 33.9246V37.8812H45.3915V36.5577C42.0984 37.266 39.8054 33.6916 38.0938 31.2963C41.2798 29.8702 42.7031 35.7095 45.3124 34.4792H45.3078Z" fill="white"/>
<path d="M36.8287 4.61328V8.56984H35.5543C36.438 12.4379 32.531 13.6682 30.4798 16.1474C29.4565 12.6615 32.531 12.6569 33.3077 10.3547C33.9915 8.33683 32.824 8.85878 32.6891 8.34149C32.5822 7.92206 32.638 5.22378 32.838 4.92552L36.8287 4.61328Z" fill="white"/>
<path d="M23.1612 38.8676C23.1054 39.7205 23.3566 40.6805 22.9984 41.496C22.6217 42.3628 20.3519 43.7516 20.0542 44.6976C19.51 46.4545 20.5705 46.3194 20.6449 46.9159C20.7147 47.4472 20.7007 49.7633 20.4821 50.0896L16.8077 50.4018L16.7891 46.6503L18.0449 45.9186C17.5053 43.5978 20.524 40.7038 22.2031 39.3663C22.5193 39.1146 22.6077 38.7278 23.1566 38.877L23.1612 38.8676Z" fill="white"/>
<path d="M15.5608 31.2916C13.3701 33.5705 11.5794 37.4478 7.94215 36.5531V37.8766H4.13281V33.92C5.19329 34.0458 6.47237 33.7569 7.49098 33.8967C8.07704 33.9759 7.90959 34.5119 8.16541 34.5771C11.0073 35.2948 12.3561 30.0846 15.5655 31.2916H15.5608Z" fill="white"/>
<path d="M20.6217 4.61328C20.5007 5.7131 20.7751 7.04128 20.6449 8.09449C20.5705 8.68635 19.5054 8.5512 20.0542 10.3128C20.3472 11.2588 22.6821 12.7128 23.017 13.519C23.3101 14.2274 22.6077 15.0243 23.1612 15.8072C22.6821 15.9004 22.4217 15.7513 22.0356 15.495C21.7612 15.3132 18.51 11.9439 18.3798 11.7109C17.8263 10.7042 18.2681 9.86539 17.9379 8.8681L16.7891 8.36479L16.8077 4.61328H20.6217Z" fill="white"/>
<path d="M67.2234 33.1907L70.1909 29.2993H81.6235C82.5631 29.2993 82.9863 29.0104 82.9863 28.3393C82.9863 27.6682 82.5398 27.356 81.5817 27.356H73.4979C69.856 27.356 67.7583 25.7016 67.7583 22.8589C67.7583 19.7738 69.8327 18.2266 74.056 18.2266H87.1166L84.1491 22.1179H73.6979C72.7397 22.1179 72.2932 22.4301 72.2932 23.0779C72.2932 23.7257 72.7397 24.0612 73.6979 24.0612H81.8468C85.5538 24.0612 87.5166 25.5618 87.5166 28.3999C87.5166 31.6901 85.6422 33.186 81.4887 33.186H67.2188L67.2234 33.1907Z" fill="white"/>
<path d="M104.396 18.2188H108.996V26.6538C108.996 31.3281 105.982 33.4298 99.2607 33.4298C92.5397 33.4298 89.4141 31.3514 89.4141 26.6538V18.2188H94.0374V26.6538C94.0374 28.7789 95.4002 29.5385 99.2607 29.5385C103.121 29.5385 104.396 28.7789 104.396 26.6538V18.2188Z" fill="white"/>
<path d="M116.178 29.3148V33.1828H111.578V25.4888H124.708C125.96 25.4888 126.718 24.841 126.718 23.7878C126.718 22.7345 125.936 22.1101 124.708 22.1101H111.578L114.68 18.2188H124.192C128.522 18.2188 131.313 20.4091 131.313 23.8111C131.313 27.213 128.569 29.3148 124.192 29.3148H116.178Z" fill="white"/>
<path d="M138.303 24.0348H150.112L147.433 27.3435H138.303V29.2915H151.005L148.057 33.1828H133.68V18.2188H150.982L147.991 22.1101H138.303V24.0348Z" fill="white"/>
<path d="M169.253 28.5817L173.764 33.1907H167.671L163.918 29.2108H157.155V33.1907H152.555V25.4733H165.797C167.494 25.4733 168.229 24.9793 168.229 23.8608C168.229 22.6538 167.448 22.1179 165.773 22.1179H152.555L155.634 18.2266H165.322C170.011 18.2266 172.848 20.2631 172.848 23.6837C172.848 26.0092 171.532 27.7102 169.253 28.5817Z" fill="white"/>
<path d="M175.367 20.796C175.367 19.0531 176.325 17.9766 177.888 17.9766C178.581 17.9766 179.116 18.2003 179.721 18.7595L188.674 26.9476V18.2236H193.093V30.6385C193.093 32.3628 192.135 33.4579 190.572 33.4579C189.879 33.4579 189.344 33.2109 188.721 32.6284L179.814 24.4869V33.1876H175.372V20.796H175.367Z" fill="white"/>
<path d="M217.181 25.694C217.181 30.9274 213.656 33.4346 206.242 33.4346C198.828 33.4346 195.344 30.9507 195.344 25.694C195.344 20.4372 198.828 17.9766 206.242 17.9766C213.656 17.9766 217.181 20.4605 217.181 25.694ZM199.948 25.694C199.948 28.7371 201.288 29.5433 206.246 29.5433C211.204 29.5433 212.563 28.7371 212.563 25.694C212.563 22.6508 211.269 21.8679 206.246 21.8679C201.223 21.8679 199.948 22.6741 199.948 25.694Z" fill="white"/>
<path d="M231.34 31.76C230.559 32.8784 229.554 33.4376 228.373 33.4376C227.192 33.4376 226.252 32.925 225.447 31.76L216.094 18.2266H221.587L228.485 28.4046L235.517 18.2266H240.922L231.345 31.76H231.34Z" fill="white"/>
<path d="M241.963 33.1876L244.731 29.2963H251.163L246.945 23.1867L239.866 33.1876H234.461L244.038 19.6543C244.684 18.7595 245.577 17.9766 247.005 17.9766C248.433 17.9766 249.303 18.7129 249.954 19.6543L259.308 33.1876H241.959H241.963Z" fill="white"/>
<path d="M97.805 54C97.435 54 97.095 53.91 96.785 53.73C96.485 53.55 96.245 53.305 96.065 52.995C95.885 52.685 95.795 52.345 95.795 51.975V51.255H97.595V51.915C97.595 51.995 97.62 52.06 97.67 52.11C97.72 52.16 97.785 52.185 97.865 52.185H104.495C104.575 52.185 104.64 52.16 104.69 52.11C104.75 52.06 104.78 51.995 104.78 51.915V49.77C104.78 49.7 104.75 49.64 104.69 49.59C104.64 49.53 104.575 49.5 104.495 49.5H97.805C97.435 49.5 97.095 49.41 96.785 49.23C96.485 49.05 96.245 48.81 96.065 48.51C95.885 48.2 95.795 47.86 95.795 47.49V45.225C95.795 44.855 95.885 44.515 96.065 44.205C96.245 43.895 96.485 43.65 96.785 43.47C97.095 43.29 97.435 43.2 97.805 43.2H104.57C104.94 43.2 105.275 43.29 105.575 43.47C105.885 43.65 106.13 43.895 106.31 44.205C106.5 44.515 106.595 44.855 106.595 45.225V45.945H104.78V45.285C104.78 45.205 104.75 45.14 104.69 45.09C104.64 45.04 104.575 45.015 104.495 45.015H97.865C97.785 45.015 97.72 45.04 97.67 45.09C97.62 45.14 97.595 45.205 97.595 45.285V47.43C97.595 47.5 97.62 47.565 97.67 47.625C97.72 47.675 97.785 47.7 97.865 47.7H104.57C104.94 47.7 105.275 47.79 105.575 47.97C105.885 48.15 106.13 48.395 106.31 48.705C106.5 49.005 106.595 49.34 106.595 49.71V51.975C106.595 52.345 106.5 52.685 106.31 52.995C106.13 53.305 105.885 53.55 105.575 53.73C105.275 53.91 104.94 54 104.57 54H97.805ZM110.153 54C109.783 54 109.448 53.91 109.148 53.73C108.848 53.54 108.603 53.295 108.413 52.995C108.233 52.695 108.143 52.36 108.143 51.99V47.31C108.143 46.94 108.233 46.605 108.413 46.305C108.603 46.005 108.848 45.765 109.148 45.585C109.448 45.395 109.783 45.3 110.153 45.3H114.968C115.348 45.3 115.688 45.395 115.988 45.585C116.288 45.765 116.528 46.005 116.708 46.305C116.888 46.605 116.978 46.94 116.978 47.31V50.55H109.928V51.93C109.928 52.01 109.953 52.08 110.003 52.14C110.063 52.19 110.133 52.215 110.213 52.215H116.978V54H110.153ZM109.928 48.915H115.193V47.37C115.193 47.29 115.163 47.225 115.103 47.175C115.053 47.115 114.988 47.085 114.908 47.085H110.213C110.133 47.085 110.063 47.115 110.003 47.175C109.953 47.225 109.928 47.29 109.928 47.37V48.915ZM118.574 54V45.3H129.524C129.904 45.3 130.244 45.395 130.544 45.585C130.844 45.765 131.084 46.005 131.264 46.305C131.444 46.605 131.534 46.94 131.534 47.31V54H129.749V47.37C129.749 47.29 129.719 47.225 129.659 47.175C129.609 47.115 129.544 47.085 129.464 47.085H126.239C126.169 47.085 126.104 47.115 126.044 47.175C125.994 47.225 125.969 47.29 125.969 47.37V54H124.154V47.37C124.154 47.29 124.129 47.225 124.079 47.175C124.029 47.115 123.964 47.085 123.884 47.085H120.644C120.574 47.085 120.509 47.115 120.449 47.175C120.399 47.225 120.374 47.29 120.374 47.37V54H118.574ZM133.207 54V45.3H134.992V54H133.207ZM133.207 44.25V42.45H134.992V44.25H133.207ZM138.454 54C138.084 54 137.749 53.91 137.449 53.73C137.149 53.54 136.904 53.295 136.714 52.995C136.534 52.695 136.444 52.36 136.444 51.99V47.31C136.444 46.94 136.534 46.605 136.714 46.305C136.904 46.005 137.149 45.765 137.449 45.585C137.749 45.395 138.084 45.3 138.454 45.3H145.264V47.085H138.514C138.434 47.085 138.364 47.115 138.304 47.175C138.254 47.225 138.229 47.29 138.229 47.37V51.93C138.229 52.01 138.254 52.08 138.304 52.14C138.364 52.19 138.434 52.215 138.514 52.215H145.279V54H138.454ZM148.81 54C148.44 54 148.105 53.91 147.805 53.73C147.505 53.54 147.26 53.295 147.07 52.995C146.89 52.695 146.8 52.36 146.8 51.99V47.31C146.8 46.94 146.89 46.605 147.07 46.305C147.26 46.005 147.505 45.765 147.805 45.585C148.105 45.395 148.44 45.3 148.81 45.3H153.625C154.005 45.3 154.345 45.395 154.645 45.585C154.945 45.765 155.185 46.005 155.365 46.305C155.545 46.605 155.635 46.94 155.635 47.31V51.99C155.635 52.36 155.545 52.695 155.365 52.995C155.185 53.295 154.945 53.54 154.645 53.73C154.345 53.91 154.005 54 153.625 54H148.81ZM148.87 52.215H153.565C153.645 52.215 153.71 52.19 153.76 52.14C153.82 52.08 153.85 52.01 153.85 51.93V47.37C153.85 47.29 153.82 47.225 153.76 47.175C153.71 47.115 153.645 47.085 153.565 47.085H148.87C148.79 47.085 148.72 47.115 148.66 47.175C148.61 47.225 148.585 47.29 148.585 47.37V51.93C148.585 52.01 148.61 52.08 148.66 52.14C148.72 52.19 148.79 52.215 148.87 52.215ZM156.894 54V45.3H163.734C164.094 45.3 164.424 45.395 164.724 45.585C165.034 45.765 165.279 46.005 165.459 46.305C165.639 46.605 165.729 46.94 165.729 47.31V54H163.944V47.37C163.944 47.29 163.914 47.225 163.854 47.175C163.804 47.115 163.744 47.085 163.674 47.085H158.964C158.894 47.085 158.829 47.115 158.769 47.175C158.709 47.225 158.679 47.29 158.679 47.37V54H156.894ZM168.883 54C168.513 54 168.173 53.91 167.863 53.73C167.563 53.54 167.323 53.295 167.143 52.995C166.963 52.695 166.873 52.36 166.873 51.99V47.31C166.873 46.94 166.963 46.605 167.143 46.305C167.323 46.005 167.563 45.765 167.863 45.585C168.173 45.395 168.513 45.3 168.883 45.3H173.938V42.45H175.723V54H168.883ZM168.958 52.215H173.653C173.733 52.215 173.798 52.19 173.848 52.14C173.908 52.08 173.938 52.01 173.938 51.93V47.37C173.938 47.29 173.908 47.225 173.848 47.175C173.798 47.115 173.733 47.085 173.653 47.085H168.958C168.878 47.085 168.808 47.115 168.748 47.175C168.698 47.225 168.673 47.29 168.673 47.37V51.93C168.673 52.01 168.698 52.08 168.748 52.14C168.808 52.19 168.878 52.215 168.958 52.215ZM178.972 54C178.602 54 178.262 53.91 177.952 53.73C177.652 53.54 177.412 53.295 177.232 52.995C177.052 52.695 176.962 52.36 176.962 51.99V45.3H178.747V51.93C178.747 52.01 178.772 52.08 178.822 52.14C178.882 52.19 178.952 52.215 179.032 52.215H183.727C183.807 52.215 183.872 52.19 183.922 52.14C183.982 52.08 184.012 52.01 184.012 51.93V45.3H185.797V51.99C185.797 52.36 185.707 52.695 185.527 52.995C185.347 53.295 185.107 53.54 184.807 53.73C184.507 53.91 184.167 54 183.787 54H178.972ZM189.109 54C188.739 54 188.399 53.91 188.089 53.73C187.789 53.54 187.549 53.295 187.369 52.995C187.189 52.695 187.099 52.36 187.099 51.99V42.585H188.884V45.3H192.364V47.085H188.884V51.93C188.884 52.01 188.909 52.08 188.959 52.14C189.019 52.19 189.089 52.215 189.169 52.215H192.364V54H189.109ZM195.553 54C195.183 54 194.848 53.91 194.548 53.73C194.248 53.54 194.003 53.295 193.813 52.995C193.633 52.695 193.543 52.36 193.543 51.99V47.31C193.543 46.94 193.633 46.605 193.813 46.305C194.003 46.005 194.248 45.765 194.548 45.585C194.848 45.395 195.183 45.3 195.553 45.3H200.368C200.748 45.3 201.088 45.395 201.388 45.585C201.688 45.765 201.928 46.005 202.108 46.305C202.288 46.605 202.378 46.94 202.378 47.31V51.99C202.378 52.36 202.288 52.695 202.108 52.995C201.928 53.295 201.688 53.54 201.388 53.73C201.088 53.91 200.748 54 200.368 54H195.553ZM195.613 52.215H200.308C200.388 52.215 200.453 52.19 200.503 52.14C200.563 52.08 200.593 52.01 200.593 51.93V47.37C200.593 47.29 200.563 47.225 200.503 47.175C200.453 47.115 200.388 47.085 200.308 47.085H195.613C195.533 47.085 195.463 47.115 195.403 47.175C195.353 47.225 195.328 47.29 195.328 47.37V51.93C195.328 52.01 195.353 52.08 195.403 52.14C195.463 52.19 195.533 52.215 195.613 52.215ZM203.666 54V47.31C203.666 46.94 203.756 46.605 203.936 46.305C204.126 46.005 204.371 45.765 204.671 45.585C204.981 45.395 205.316 45.3 205.676 45.3H210.521V47.085H205.736C205.656 47.085 205.586 47.115 205.526 47.175C205.476 47.225 205.451 47.29 205.451 47.37V54H203.666ZM213.512 54C213.142 54 212.807 53.91 212.507 53.73C212.207 53.54 211.962 53.295 211.772 52.995C211.592 52.695 211.502 52.36 211.502 51.99V47.31C211.502 46.94 211.592 46.605 211.772 46.305C211.962 46.005 212.207 45.765 212.507 45.585C212.807 45.395 213.142 45.3 213.512 45.3H218.327C218.707 45.3 219.047 45.395 219.347 45.585C219.647 45.765 219.887 46.005 220.067 46.305C220.247 46.605 220.337 46.94 220.337 47.31V50.55H213.287V51.93C213.287 52.01 213.312 52.08 213.362 52.14C213.422 52.19 213.492 52.215 213.572 52.215H220.337V54H213.512ZM213.287 48.915H218.552V47.37C218.552 47.29 218.522 47.225 218.462 47.175C218.412 47.115 218.347 47.085 218.267 47.085H213.572C213.492 47.085 213.422 47.115 213.362 47.175C213.312 47.225 213.287 47.29 213.287 47.37V48.915ZM223.78 54C223.41 54 223.075 53.91 222.775 53.73C222.475 53.54 222.23 53.295 222.04 52.995C221.86 52.695 221.77 52.36 221.77 51.99V51.705H223.555V51.93C223.555 52.01 223.58 52.08 223.63 52.14C223.69 52.19 223.76 52.215 223.84 52.215H228.535C228.615 52.215 228.68 52.19 228.73 52.14C228.79 52.08 228.82 52.01 228.82 51.93V50.82C228.82 50.75 228.79 50.69 228.73 50.64C228.68 50.58 228.615 50.55 228.535 50.55H223.78C223.41 50.55 223.075 50.46 222.775 50.28C222.475 50.09 222.23 49.845 222.04 49.545C221.86 49.245 221.77 48.91 221.77 48.54V47.31C221.77 46.94 221.86 46.605 222.04 46.305C222.23 46.005 222.475 45.765 222.775 45.585C223.075 45.395 223.41 45.3 223.78 45.3H228.595C228.975 45.3 229.315 45.395 229.615 45.585C229.915 45.765 230.155 46.005 230.335 46.305C230.525 46.605 230.62 46.94 230.62 47.31V47.595H228.82V47.37C228.82 47.29 228.79 47.225 228.73 47.175C228.68 47.115 228.615 47.085 228.535 47.085H223.84C223.76 47.085 223.69 47.115 223.63 47.175C223.58 47.225 223.555 47.29 223.555 47.37V48.48C223.555 48.55 223.58 48.615 223.63 48.675C223.69 48.725 223.76 48.75 223.84 48.75H228.595C228.975 48.75 229.315 48.845 229.615 49.035C229.915 49.215 230.155 49.455 230.335 49.755C230.525 50.055 230.62 50.39 230.62 50.76V51.99C230.62 52.36 230.525 52.695 230.335 52.995C230.155 53.295 229.915 53.54 229.615 53.73C229.315 53.91 228.975 54 228.595 54H223.78Z" fill="#00D3F3"/>
</svg>
