<svg width="54" height="55" viewBox="0 0 54 55" fill="none" xmlns="http://www.w3.org/2000/svg">
<path d="M23.1779 31.2891V37.2169H18.5732C18.1499 37.2169 13.6243 42.9583 12.429 43.1867L13.3173 45.2419C13.2801 45.4749 10.3638 48.4901 10.1592 48.5926C8.91729 49.1845 6.77774 45.6846 5.72656 44.9576L9.41497 41.1921L10.6847 42.1381C10.8661 42.2127 10.9731 42.0915 11.1173 42.0123C11.4801 41.8212 16.6476 36.448 16.8522 36.0845C17.536 34.8448 16.9778 32.7291 17.1546 31.2891H23.1872H23.1779Z" fill="#00D3F3"/>
<path d="M17.4709 23.7164C17.3127 22.3416 17.8337 20.4495 17.1685 19.2519C16.9546 18.8697 11.4987 13.1935 11.1173 12.9931C10.9731 12.9186 10.8661 12.7974 10.6847 12.8673L9.41497 13.8133L5.72656 10.0478L9.68939 5.9375L13.3173 9.76357L12.4057 11.0778C12.308 11.6556 17.4197 16.5349 18.3081 17.2526C18.4709 17.3831 18.3918 17.7839 18.4197 17.7839H23.1825V23.7117H17.4709V23.7164Z" fill="#00D3F3"/>
<path d="M36.1961 23.7164H30.4844V17.7885C31.8704 17.6068 33.9123 18.1893 35.103 17.4763C35.4519 17.2666 40.6473 11.9026 40.8147 11.5205C41.2287 10.5651 40.331 10.3461 40.317 9.71231C40.2938 8.71035 43.3868 6.92547 43.9729 5.9375C44.8194 7.09324 46.5869 8.26297 47.3264 9.38143C47.5543 9.72629 47.7217 9.73561 47.4845 10.211C47.3776 10.43 44.6473 13.585 44.4473 13.6922C43.5682 14.1535 43.4473 12.4292 42.2333 13.0025C41.8659 13.1749 36.6984 18.5575 36.4937 18.9256C35.81 20.1653 36.3682 22.281 36.1914 23.721L36.1961 23.7164Z" fill="#00D3F3"/>
<path d="M36.1961 31.2891C36.3542 32.6638 35.8333 34.5559 36.4984 35.7536C37.4891 37.5478 41.4147 40.2181 42.7078 42.1521L43.7217 41.2014C44.3171 41.0383 47.2148 43.9184 47.4892 44.4636C47.7264 44.939 47.559 44.9483 47.331 45.2931C47.0241 45.7592 44.0194 48.7744 43.7031 48.7184L40.3589 45.2186C40.131 44.3191 41.2705 43.8391 41.2705 43.6387C41.2705 43.3032 37.2333 39.356 36.6658 38.8713C36.3123 38.5684 34.917 37.3474 34.7077 37.2822C33.5774 36.928 31.7262 37.394 30.4844 37.2169V31.2891H36.1961Z" fill="#00D3F3"/>
<path d="M53.6406 24.7031V30.3001H47.9242V28.655H33.0078V26.3482H47.9242V24.7031H53.6406Z" fill="#00D3F3"/>
<path d="M5.3954 24.7031V26.3482H20.6328V28.655H5.3954V30.3001H0V24.7031H5.3954Z" fill="#00D3F3"/>
<path d="M25.7169 33.9219H27.6239V49.0724H29.5309V54.5062L29.0565 55.0002H24.2937C23.3216 53.6394 23.9727 51.2953 23.8611 49.613C24.103 48.8533 25.103 49.0817 25.7216 49.0724V33.9219H25.7169Z" fill="#00D3F3"/>
<path d="M29.5242 0V5.59697L27.6218 6.09096V21.0783H25.7148V6.09096L23.8125 5.59697V0H29.5242Z" fill="#00D3F3"/>
<path d="M49.5177 17.128V21.0846C48.3596 20.9494 46.9503 21.257 45.8433 21.1079C45.2805 21.0333 45.1456 19.6539 43.3084 20.7351C41.5223 21.7883 41.0618 24.7662 37.7734 23.713C39.9967 21.6019 41.9595 17.6173 45.3735 18.0834L45.5642 17.1094L49.5177 17.128Z" fill="white"/>
<path d="M7.92355 17.1662L7.96076 18.0796C10.5794 17.4924 13.598 20.708 15.0864 22.7259C15.3329 23.0568 15.7004 23.1453 15.5608 23.7139C14.7422 23.6579 13.8166 23.9142 13.0306 23.5461C12.2027 23.1593 10.8305 20.7732 9.94682 20.4936C8.06308 19.8971 8.03052 21.0342 7.49098 21.1088C6.47702 21.2439 5.19329 20.9596 4.13281 21.0855V17.1289L7.92355 17.1662Z" fill="white"/>
<path d="M36.7793 46.4847C36.9375 46.6618 36.9514 49.9426 36.5282 50.2502L32.8351 50.0871C32.6165 49.7609 32.5979 47.4214 32.6909 46.9274C32.8816 45.8975 34.6305 46.3728 33.0165 43.9728C31.8258 42.2019 29.7467 41.8477 30.4816 38.8698C30.6909 38.5762 35.0258 42.8777 35.2584 43.2971C35.8119 44.3037 35.37 45.1425 35.7003 46.1398L36.784 46.4847H36.7793Z" fill="white"/>
<path d="M45.3078 34.4792C45.4054 34.4326 45.2799 33.9759 45.8473 33.9013C46.9589 33.7569 48.359 34.0598 49.5218 33.9246V37.8812H45.3915V36.5577C42.0984 37.266 39.8054 33.6916 38.0938 31.2963C41.2798 29.8702 42.7031 35.7095 45.3124 34.4792H45.3078Z" fill="white"/>
<path d="M36.8287 4.61328V8.56984H35.5543C36.438 12.4379 32.531 13.6682 30.4798 16.1474C29.4565 12.6615 32.531 12.6569 33.3077 10.3547C33.9915 8.33683 32.824 8.85878 32.6891 8.34149C32.5822 7.92206 32.638 5.22378 32.838 4.92552L36.8287 4.61328Z" fill="white"/>
<path d="M23.1612 38.8676C23.1054 39.7205 23.3566 40.6805 22.9984 41.496C22.6217 42.3628 20.3519 43.7516 20.0542 44.6976C19.51 46.4545 20.5705 46.3194 20.6449 46.9159C20.7147 47.4472 20.7007 49.7633 20.4821 50.0896L16.8077 50.4018L16.7891 46.6503L18.0449 45.9186C17.5053 43.5978 20.524 40.7038 22.2031 39.3663C22.5193 39.1146 22.6077 38.7278 23.1566 38.877L23.1612 38.8676Z" fill="white"/>
<path d="M15.5608 31.2916C13.3701 33.5705 11.5794 37.4478 7.94215 36.5531V37.8766H4.13281V33.92C5.19329 34.0458 6.47237 33.7569 7.49098 33.8967C8.07704 33.9759 7.90959 34.5119 8.16541 34.5771C11.0073 35.2948 12.3561 30.0846 15.5655 31.2916H15.5608Z" fill="white"/>
<path d="M20.6217 4.61328C20.5007 5.7131 20.7751 7.04128 20.6449 8.09449C20.5705 8.68635 19.5054 8.5512 20.0542 10.3128C20.3472 11.2588 22.6821 12.7128 23.017 13.519C23.3101 14.2274 22.6077 15.0243 23.1612 15.8072C22.6821 15.9004 22.4217 15.7513 22.0356 15.495C21.7612 15.3132 18.51 11.9439 18.3798 11.7109C17.8263 10.7042 18.2681 9.86539 17.9379 8.8681L16.7891 8.36479L16.8077 4.61328H20.6217Z" fill="white"/>
</svg>
